<svg xmlns="http://www.w3.org/2000/svg" xmlns:xlink="http://www.w3.org/1999/xlink" width="95" zoomAndPan="magnify" viewBox="0 0 71.25 71.25" height="95" preserveAspectRatio="xMidYMid meet" version="1.0"><defs><clipPath id="d498786f39"><path d="M 3.898438 5 L 66.242188 5 L 66.242188 62 L 3.898438 62 Z M 3.898438 5 " clip-rule="nonzero"/></clipPath></defs><g clip-path="url(#d498786f39)"><path fill="#00d8ff" d="M 55.117188 23.5 C 54.472656 23.277344 53.804688 23.066406 53.113281 22.867188 C 53.230469 22.402344 53.332031 21.945312 53.425781 21.496094 C 54.941406 14.109375 53.949219 8.160156 50.566406 6.203125 C 47.316406 4.324219 42.011719 6.285156 36.648438 10.964844 C 36.132812 11.414062 35.617188 11.890625 35.101562 12.390625 C 34.753906 12.058594 34.414062 11.742188 34.070312 11.433594 C 28.453125 6.429688 22.820312 4.320312 19.4375 6.285156 C 16.195312 8.167969 15.234375 13.761719 16.601562 20.757812 C 16.730469 21.433594 16.886719 22.125 17.058594 22.828125 C 16.261719 23.054688 15.492188 23.296875 14.757812 23.554688 C 8.167969 25.859375 3.960938 29.46875 3.960938 33.214844 C 3.960938 37.082031 8.480469 40.964844 15.339844 43.316406 C 15.882812 43.503906 16.441406 43.679688 17.023438 43.84375 C 16.835938 44.601562 16.671875 45.347656 16.535156 46.074219 C 15.230469 52.949219 16.25 58.410156 19.484375 60.28125 C 22.824219 62.214844 28.429688 60.226562 33.886719 55.441406 C 34.320312 55.0625 34.753906 54.660156 35.1875 54.238281 C 35.75 54.78125 36.3125 55.296875 36.867188 55.777344 C 42.15625 60.34375 47.378906 62.1875 50.609375 60.3125 C 53.945312 58.375 55.03125 52.507812 53.621094 45.371094 C 53.515625 44.824219 53.390625 44.269531 53.25 43.703125 C 53.644531 43.585938 54.03125 43.464844 54.40625 43.339844 C 61.539062 40.96875 66.179688 37.136719 66.179688 33.214844 C 66.179688 29.457031 61.835938 25.820312 55.117188 23.5 Z M 53.570312 40.808594 C 53.230469 40.921875 52.882812 41.03125 52.527344 41.136719 C 51.738281 38.636719 50.675781 35.976562 49.375 33.226562 C 50.617188 30.546875 51.636719 27.917969 52.402344 25.433594 C 53.039062 25.621094 53.65625 25.816406 54.253906 26.019531 C 60.007812 28.007812 63.523438 30.949219 63.523438 33.214844 C 63.523438 35.625 59.730469 38.761719 53.570312 40.808594 Z M 51.015625 45.886719 C 51.640625 49.042969 51.726562 51.898438 51.3125 54.128906 C 50.945312 56.132812 50.199219 57.46875 49.277344 58.003906 C 47.316406 59.140625 43.125 57.660156 38.601562 53.757812 C 38.082031 53.308594 37.558594 52.832031 37.039062 52.324219 C 38.789062 50.402344 40.542969 48.164062 42.253906 45.679688 C 45.261719 45.414062 48.101562 44.976562 50.679688 44.378906 C 50.804688 44.894531 50.917969 45.394531 51.015625 45.886719 Z M 25.175781 57.804688 C 23.257812 58.484375 21.734375 58.503906 20.8125 57.972656 C 18.847656 56.835938 18.03125 52.449219 19.144531 46.570312 C 19.273438 45.898438 19.425781 45.207031 19.601562 44.5 C 22.148438 45.0625 24.96875 45.472656 27.984375 45.714844 C 29.707031 48.144531 31.507812 50.378906 33.324219 52.335938 C 32.929688 52.722656 32.53125 53.085938 32.140625 53.429688 C 29.726562 55.550781 27.308594 57.050781 25.175781 57.804688 Z M 16.199219 40.792969 C 13.167969 39.753906 10.660156 38.402344 8.945312 36.925781 C 7.402344 35.601562 6.621094 34.285156 6.621094 33.214844 C 6.621094 30.941406 10 28.042969 15.632812 26.070312 C 16.316406 25.832031 17.03125 25.605469 17.773438 25.394531 C 18.554688 27.9375 19.574219 30.59375 20.804688 33.277344 C 19.558594 36.003906 18.523438 38.703125 17.734375 41.277344 C 17.207031 41.125 16.695312 40.960938 16.199219 40.792969 Z M 19.207031 20.246094 C 18.039062 14.25 18.816406 9.726562 20.769531 8.59375 C 22.851562 7.382812 27.453125 9.109375 32.304688 13.429688 C 32.617188 13.707031 32.925781 13.996094 33.238281 14.292969 C 31.433594 16.242188 29.644531 18.457031 27.9375 20.875 C 25.011719 21.148438 22.210938 21.585938 19.636719 22.167969 C 19.476562 21.515625 19.332031 20.875 19.207031 20.246094 Z M 46.046875 26.894531 C 45.429688 25.828125 44.796875 24.789062 44.152344 23.773438 C 46.140625 24.027344 48.039062 24.359375 49.828125 24.769531 C 49.292969 26.492188 48.625 28.296875 47.835938 30.144531 C 47.273438 29.070312 46.675781 27.984375 46.046875 26.894531 Z M 35.101562 16.199219 C 36.328125 17.53125 37.554688 19.019531 38.761719 20.636719 C 37.546875 20.578125 36.3125 20.546875 35.070312 20.546875 C 33.84375 20.546875 32.621094 20.578125 31.410156 20.632812 C 32.617188 19.035156 33.855469 17.546875 35.101562 16.199219 Z M 24.085938 26.914062 C 23.472656 27.984375 22.886719 29.0625 22.332031 30.144531 C 21.558594 28.300781 20.894531 26.488281 20.355469 24.742188 C 22.128906 24.34375 24.023438 24.015625 25.996094 23.769531 C 25.339844 24.792969 24.703125 25.839844 24.085938 26.914062 Z M 26.050781 42.851562 C 24.011719 42.621094 22.089844 42.3125 20.316406 41.925781 C 20.867188 40.144531 21.542969 38.296875 22.332031 36.414062 C 22.890625 37.496094 23.480469 38.574219 24.097656 39.644531 C 24.726562 40.738281 25.382812 41.804688 26.050781 42.851562 Z M 35.175781 50.417969 C 33.914062 49.054688 32.660156 47.542969 31.429688 45.921875 C 32.621094 45.96875 33.835938 45.992188 35.070312 45.992188 C 36.339844 45.992188 37.59375 45.964844 38.828125 45.910156 C 37.617188 47.5625 36.390625 49.074219 35.175781 50.417969 Z M 47.859375 36.320312 C 48.691406 38.222656 49.394531 40.058594 49.949219 41.8125 C 48.148438 42.222656 46.199219 42.554688 44.148438 42.804688 C 44.792969 41.777344 45.429688 40.714844 46.058594 39.625 C 46.691406 38.523438 47.292969 37.417969 47.859375 36.320312 Z M 43.753906 38.292969 C 42.78125 39.988281 41.78125 41.601562 40.769531 43.125 C 38.925781 43.257812 37.015625 43.324219 35.070312 43.324219 C 33.136719 43.324219 31.25 43.265625 29.4375 43.148438 C 28.382812 41.605469 27.363281 39.984375 26.398438 38.308594 C 25.433594 36.640625 24.546875 34.953125 23.742188 33.277344 C 24.546875 31.601562 25.429688 29.914062 26.390625 28.246094 C 27.351562 26.574219 28.363281 24.960938 29.40625 23.425781 C 31.257812 23.289062 33.15625 23.214844 35.070312 23.214844 C 37 23.214844 38.898438 23.289062 40.746094 23.429688 C 41.777344 24.953125 42.78125 26.558594 43.746094 28.230469 C 44.71875 29.921875 45.617188 31.597656 46.425781 33.242188 C 45.621094 34.914062 44.726562 36.605469 43.753906 38.292969 Z M 49.234375 8.511719 C 51.320312 9.71875 52.128906 14.582031 50.820312 20.957031 C 50.738281 21.363281 50.644531 21.777344 50.542969 22.195312 C 47.960938 21.597656 45.15625 21.15625 42.222656 20.878906 C 40.511719 18.433594 38.742188 16.214844 36.960938 14.292969 C 37.441406 13.832031 37.921875 13.390625 38.394531 12.976562 C 42.988281 8.964844 47.28125 7.382812 49.234375 8.511719 Z M 35.070312 27.640625 C 38.140625 27.640625 40.628906 30.132812 40.628906 33.214844 C 40.628906 36.292969 38.140625 38.789062 35.070312 38.789062 C 32.003906 38.789062 29.515625 36.292969 29.515625 33.214844 C 29.515625 30.132812 32.003906 27.640625 35.070312 27.640625 Z M 35.070312 27.640625 " fill-opacity="1" fill-rule="nonzero"/></g></svg>